<svg xmlns="http://www.w3.org/2000/svg" width="263" height="82" fill="none" xmlns:v="https://vecta.io/nano"><g filter="url(#A)"><path d="M164.843 82c-4.593 0-7.42-2.05-12.041-4.466s-17.99-12.133-17.99-24.234c0-8.207-2.187-14.849-5.915-20.138-3.699-5.251-8.709-8.887-13.92-11.456-2.512-1.237-5.126-2.248-7.727-3.085-1.519-.489-2.399-2.064-1.738-3.471C109.681 6.215 118.973 0 129.766 0c14.694 0 26.608 11.521 26.608 25.731.004 2.953-.519 5.884-1.548 8.665 4.24-2.764 9.352-4.377 14.85-4.377 14.694 0 26.607 11.521 26.607 25.731.004 17.107-15.542 26.25-31.44 26.25zM67.684 53.608c0 13.564 9.246 24.863 21.495 27.361A18.17 18.17 0 0 0 95.242 82h41.34c1.385 0 1.989-1.794.932-2.658-7.225-5.911-12.595-14.244-12.595-26.042 0-6.481-1.696-11.203-4.197-14.753-2.53-3.591-6.088-6.273-10.235-8.32-4.187-2.064-8.734-3.376-13.076-4.308a25.39 25.39 0 0 0-3.116-.188c-14.697 0-26.611 12.481-26.611 27.877z" fill="#8fb2f5"/></g><g filter="url(#B)"><path d="M31.356 56.16c-.36 0-.653-.087-.88-.26-.213-.173-.387-.447-.52-.82l-4.18-11.82c-.147-.427-.12-.787.08-1.08.213-.293.567-.44 1.06-.44.36 0 .64.087.84.26.2.16.36.42.48.78l3.6 10.68h-.8l3.76-10.66c.133-.36.3-.627.5-.8s.46-.26.78-.26.573.087.76.26.347.447.48.82l3.64 10.64h-.7l3.66-10.68c.12-.347.28-.607.48-.78s.473-.26.82-.26c.427 0 .74.147.94.44s.227.653.08 1.08l-4.22 11.84c-.133.36-.307.627-.52.8s-.5.26-.86.26-.647-.087-.86-.26-.387-.447-.52-.82l-3.48-9.92h.46l-3.52 9.94c-.133.36-.307.627-.52.8-.2.173-.48.26-.84.26zm20.436.04c-1.107 0-2.06-.207-2.86-.62a4.47 4.47 0 0 1-1.86-1.76c-.427-.76-.64-1.66-.64-2.7 0-1.013.207-1.9.62-2.66a4.65 4.65 0 0 1 1.74-1.78c.747-.44 1.593-.66 2.54-.66.693 0 1.313.113 1.86.34a3.82 3.82 0 0 1 1.42.98c.4.427.7.947.9 1.56.213.6.32 1.28.32 2.04 0 .24-.087.427-.26.56-.16.12-.393.18-.7.18h-6.42v-1.44h5.62l-.32.3c0-.613-.093-1.127-.28-1.54-.173-.413-.433-.727-.78-.94-.333-.227-.753-.34-1.26-.34-.56 0-1.04.133-1.44.4-.387.253-.687.62-.9 1.1-.2.467-.3 1.027-.3 1.68v.14c0 1.093.253 1.913.76 2.46.52.533 1.28.8 2.28.8.347 0 .733-.04 1.16-.12.44-.093.853-.247 1.24-.46.28-.16.527-.227.74-.2a.7.7 0 0 1 .5.22c.133.133.213.3.24.5.027.187-.013.38-.12.58-.093.2-.26.373-.5.52-.467.293-1.007.513-1.62.66-.6.133-1.16.2-1.68.2zm9.04 0c-.707 0-1.34-.133-1.9-.4-.547-.28-.98-.653-1.3-1.12-.307-.467-.46-.993-.46-1.58 0-.72.187-1.287.56-1.7.373-.427.98-.733 1.82-.92s1.967-.28 3.38-.28h1v1.44h-.98c-.827 0-1.487.04-1.98.12s-.847.22-1.06.42c-.2.187-.3.453-.3.8 0 .44.153.8.46 1.08s.733.42 1.28.42a2.21 2.21 0 0 0 1.16-.3 2.31 2.31 0 0 0 .82-.86 2.51 2.51 0 0 0 .3-1.24v-2.3c0-.667-.147-1.147-.44-1.44s-.787-.44-1.48-.44c-.387 0-.807.047-1.26.14a6.71 6.71 0 0 0-1.4.48c-.253.12-.48.153-.68.1-.187-.053-.333-.16-.44-.32a1.05 1.05 0 0 1-.16-.56c0-.2.053-.393.16-.58.107-.2.287-.347.54-.44.613-.253 1.2-.433 1.76-.54.573-.107 1.093-.16 1.56-.16.96 0 1.747.147 2.36.44a2.91 2.91 0 0 1 1.4 1.34c.307.587.46 1.347.46 2.28v4.8c0 .413-.1.733-.3.96-.2.213-.487.32-.86.32s-.667-.107-.88-.32c-.2-.227-.3-.547-.3-.96v-.96h.16c-.093.467-.28.873-.56 1.22-.267.333-.607.593-1.02.78s-.887.28-1.42.28zm11.998 0c-.867 0-1.593-.147-2.18-.44-.573-.293-1-.72-1.28-1.28-.28-.573-.42-1.28-.42-2.12V48.1h-1.04c-.32 0-.567-.08-.74-.24-.173-.173-.26-.407-.26-.7 0-.307.087-.54.26-.7s.42-.24.74-.24h1.04V44.4c0-.413.107-.727.32-.94.227-.213.54-.32.94-.32s.707.107.92.32.32.527.32.94v1.82h2.12c.32 0 .567.08.74.24s.26.393.26.7c0 .293-.087.527-.26.7-.173.16-.42.24-.74.24h-2.12v4.12c0 .64.14 1.12.42 1.44s.733.48 1.36.48c.227 0 .427-.02.6-.06s.327-.067.46-.08c.16-.013.293.04.4.16.107.107.16.333.16.68 0 .267-.047.507-.14.72-.08.2-.233.34-.46.42-.173.053-.4.1-.68.14-.28.053-.527.08-.74.08zm4.49-.04c-.4 0-.707-.107-.92-.32-.213-.227-.32-.547-.32-.96V43c0-.413.107-.727.32-.94s.52-.32.92-.32.707.107.92.32c.227.213.34.527.34.94v5.18h-.28c.293-.707.747-1.24 1.36-1.6.627-.373 1.333-.56 2.12-.56s1.433.147 1.94.44.887.74 1.14 1.34c.253.587.38 1.333.38 2.24v4.84c0 .413-.107.733-.32.96-.213.213-.52.32-.92.32s-.713-.107-.94-.32c-.213-.227-.32-.547-.32-.96v-4.72c0-.76-.147-1.313-.44-1.66-.28-.347-.72-.52-1.32-.52-.733 0-1.32.233-1.76.7-.427.453-.64 1.06-.64 1.82v4.38c0 .853-.42 1.28-1.26 1.28zm15.079.04c-1.107 0-2.06-.207-2.86-.62a4.47 4.47 0 0 1-1.86-1.76c-.427-.76-.64-1.66-.64-2.7 0-1.013.207-1.9.62-2.66a4.65 4.65 0 0 1 1.74-1.78c.747-.44 1.593-.66 2.54-.66.693 0 1.313.113 1.86.34a3.82 3.82 0 0 1 1.42.98c.4.427.7.947.9 1.56.213.6.32 1.28.32 2.04 0 .24-.087.427-.26.56-.16.12-.393.18-.7.18h-6.42v-1.44h5.62l-.32.3c0-.613-.093-1.127-.28-1.54-.173-.413-.433-.727-.78-.94-.333-.227-.753-.34-1.26-.34-.56 0-1.04.133-1.44.4-.387.253-.687.62-.9 1.1-.2.467-.3 1.027-.3 1.68v.14c0 1.093.253 1.913.76 2.46.52.533 1.28.8 2.28.8.347 0 .733-.04 1.16-.12.44-.093.853-.247 1.24-.46.28-.16.527-.227.74-.2a.7.7 0 0 1 .5.22c.133.133.213.3.24.5.027.187-.013.38-.12.58-.093.2-.26.373-.5.52-.467.293-1.007.513-1.62.66-.6.133-1.16.2-1.68.2zm7.1-.04c-.413 0-.733-.107-.96-.32-.213-.227-.32-.547-.32-.96v-7.56c0-.413.107-.727.32-.94s.513-.32.9-.32.687.107.9.32.32.527.32.94v1.26h-.2c.187-.8.553-1.407 1.1-1.82s1.273-.66 2.18-.74c.28-.027.5.047.66.22.173.16.273.413.3.76.027.333-.053.607-.24.82-.173.2-.44.32-.8.36l-.44.04c-.813.08-1.427.333-1.84.76-.413.413-.62 1-.62 1.76v4.14c0 .413-.107.733-.32.96-.213.213-.527.32-.94.32zm11.552 0c-.36 0-.653-.087-.88-.26-.213-.173-.387-.447-.52-.82l-4.18-11.82c-.147-.427-.12-.787.08-1.08.213-.293.567-.44 1.06-.44.36 0 .64.087.84.26.2.16.36.42.48.78l3.6 10.68h-.8l3.76-10.66c.133-.36.3-.627.5-.8s.46-.26.78-.26.573.087.76.26.347.447.48.82l3.64 10.64h-.7l3.66-10.68c.12-.347.28-.607.48-.78s.473-.26.82-.26c.427 0 .74.147.94.44s.227.653.08 1.08l-4.22 11.84c-.133.36-.307.627-.52.8s-.5.26-.86.26-.647-.087-.86-.26-.387-.447-.52-.82l-3.48-9.92h.46l-3.52 9.94c-.133.36-.307.627-.52.8-.2.173-.48.26-.84.26zm19.102-.02c-.4 0-.707-.12-.92-.36s-.32-.573-.32-1v-7.34c0-.44.106-.773.32-1 .213-.24.52-.36.92-.36s.706.12.92.36c.226.227.34.56.34 1v7.34c0 .427-.107.76-.32 1s-.527.36-.94.36zm0-11.92c-.467 0-.834-.113-1.1-.34-.254-.24-.38-.567-.38-.98 0-.427.126-.753.38-.98.266-.227.633-.34 1.1-.34.48 0 .846.113 1.1.34s.38.553.38.98c0 .413-.127.74-.38.98-.254.227-.62.34-1.1.34zm7.237 11.98c-.573 0-1.18-.06-1.82-.18s-1.213-.327-1.72-.62c-.213-.133-.366-.287-.46-.46-.08-.187-.113-.367-.1-.54a.98.98 0 0 1 .2-.48.83.83 0 0 1 .44-.26c.187-.04.387-.007.6.1.534.253 1.034.433 1.5.54a7.03 7.03 0 0 0 1.38.14c.64 0 1.114-.107 1.42-.32.32-.227.48-.52.48-.88 0-.307-.106-.54-.32-.7-.2-.173-.506-.3-.92-.38l-2-.38c-.826-.16-1.46-.46-1.9-.9-.426-.453-.64-1.033-.64-1.74 0-.64.174-1.193.52-1.66.36-.467.854-.827 1.48-1.08s1.347-.38 2.16-.38c.587 0 1.134.067 1.64.2a5.73 5.73 0 0 1 1.5.58c.2.107.334.247.4.42.08.173.1.353.06.54-.04.173-.12.333-.24.48-.12.133-.273.22-.46.26-.173.027-.373-.013-.6-.12a5.37 5.37 0 0 0-1.2-.46c-.373-.093-.733-.14-1.08-.14-.653 0-1.14.113-1.46.34-.306.227-.46.527-.46.9 0 .28.094.513.28.7s.474.313.86.38l2 .38c.867.16 1.52.453 1.96.88.454.427.68 1 .68 1.72 0 .973-.38 1.74-1.14 2.3-.76.547-1.773.82-3.04.82zm10.806 0c-1.107 0-2.06-.207-2.86-.62a4.47 4.47 0 0 1-1.86-1.76c-.427-.76-.64-1.66-.64-2.7 0-1.013.207-1.9.62-2.66.427-.76 1.007-1.353 1.74-1.78.747-.44 1.593-.66 2.54-.66.693 0 1.313.113 1.86.34.56.227 1.033.553 1.42.98.4.427.7.947.9 1.56.213.6.32 1.28.32 2.04 0 .24-.087.427-.26.56-.16.12-.393.18-.7.18h-6.42v-1.44h5.62l-.32.3c0-.613-.093-1.127-.28-1.54-.173-.413-.433-.727-.78-.94-.333-.227-.753-.34-1.26-.34-.56 0-1.04.133-1.44.4-.387.253-.687.62-.9 1.1-.2.467-.3 1.027-.3 1.68v.14c0 1.093.253 1.913.76 2.46.52.533 1.28.8 2.28.8.347 0 .733-.04 1.16-.12.44-.093.853-.247 1.24-.46.28-.16.527-.227.74-.2.213.013.38.087.5.22.133.133.213.3.24.5.027.187-.013.38-.12.58-.093.2-.26.373-.5.52-.467.293-1.007.513-1.62.66-.6.133-1.16.2-1.68.2zm14.85-.2c-.44 0-.78-.113-1.02-.34-.227-.24-.34-.58-.34-1.02V43.26c0-.44.113-.773.34-1 .24-.24.58-.36 1.02-.36h4.8c.986 0 1.826.147 2.52.44s1.22.713 1.58 1.26c.373.547.56 1.2.56 1.96 0 .853-.247 1.573-.74 2.16s-1.167.98-2.02 1.18v-.3c.986.147 1.753.52 2.3 1.12s.82 1.38.82 2.34c0 1.253-.427 2.227-1.28 2.92-.84.68-2.014 1.02-3.52 1.02h-5.02zm1.1-1.94h3.6c.906 0 1.573-.173 2-.52.426-.36.64-.893.64-1.6 0-.72-.214-1.253-.64-1.6s-1.094-.52-2-.52h-3.6v4.24zm0-6.18h3.26c.88 0 1.533-.167 1.96-.5.44-.347.66-.853.66-1.52s-.22-1.167-.66-1.5c-.427-.347-1.08-.52-1.96-.52h-3.26v4.04zm14.089 8.32c-.707 0-1.34-.133-1.9-.4-.547-.28-.98-.653-1.3-1.12a2.81 2.81 0 0 1-.46-1.58c0-.72.187-1.287.56-1.7.373-.427.98-.733 1.82-.92s1.967-.28 3.38-.28h1v1.44h-.98c-.827 0-1.487.04-1.98.12s-.847.22-1.06.42c-.2.187-.3.453-.3.8 0 .44.153.8.46 1.08s.733.42 1.28.42a2.21 2.21 0 0 0 1.16-.3c.347-.213.62-.5.82-.86a2.51 2.51 0 0 0 .3-1.24v-2.3c0-.667-.147-1.147-.44-1.44s-.787-.44-1.48-.44c-.387 0-.807.047-1.26.14-.44.093-.907.253-1.4.48-.253.12-.48.153-.68.1-.187-.053-.333-.16-.44-.32-.107-.173-.16-.36-.16-.56a1.15 1.15 0 0 1 .16-.58c.107-.2.287-.347.54-.44.613-.253 1.2-.433 1.76-.54a8.59 8.59 0 0 1 1.56-.16c.96 0 1.747.147 2.36.44a2.91 2.91 0 0 1 1.4 1.34c.307.587.46 1.347.46 2.28v4.8c0 .413-.1.733-.3.96-.2.213-.487.32-.86.32s-.667-.107-.88-.32c-.2-.227-.3-.547-.3-.96v-.96h.16a2.77 2.77 0 0 1-.56 1.22c-.267.333-.607.593-1.02.78s-.887.28-1.42.28zm12.038 0c-1.027 0-1.92-.207-2.68-.62a4.4 4.4 0 0 1-1.76-1.8c-.414-.773-.62-1.68-.62-2.72 0-.787.113-1.487.34-2.1.24-.627.58-1.153 1.02-1.58a4.29 4.29 0 0 1 1.6-1c.626-.24 1.326-.36 2.1-.36.44 0 .913.06 1.42.18a4.83 4.83 0 0 1 1.46.6c.213.133.353.293.42.48s.08.38.04.58c-.04.187-.127.353-.26.5a.84.84 0 0 1-.46.26c-.187.027-.394-.02-.62-.14-.294-.173-.594-.3-.9-.38-.307-.093-.6-.14-.88-.14-.44 0-.827.073-1.16.22-.334.133-.62.333-.86.6-.227.253-.4.573-.52.96s-.18.833-.18 1.34c0 .987.233 1.767.7 2.34.48.56 1.153.84 2.02.84.28 0 .566-.04.86-.12a3.86 3.86 0 0 0 .92-.38c.226-.12.426-.16.6-.12.186.04.34.133.46.28.12.133.193.3.22.5.026.187 0 .373-.08.56-.067.187-.2.34-.4.46a4.94 4.94 0 0 1-1.4.58c-.494.12-.96.18-1.4.18zm5.953-.04c-.4 0-.707-.107-.92-.32-.213-.227-.32-.547-.32-.96V43c0-.413.107-.727.32-.94s.52-.32.92-.32.707.107.92.32c.227.213.34.527.34.94v7.38h.04l3.3-3.48c.267-.267.5-.473.7-.62s.473-.22.82-.22.607.093.78.28c.187.173.28.387.28.64s-.12.507-.36.76l-3.48 3.68v-1.04l3.82 4.12c.24.253.347.513.32.78-.013.253-.12.467-.32.64-.2.16-.453.24-.76.24-.373 0-.673-.073-.9-.22-.213-.147-.453-.367-.72-.66l-3.48-3.64h-.04v3.24c0 .853-.42 1.28-1.26 1.28zm13.907.04c-1.106 0-2.06-.207-2.86-.62a4.47 4.47 0 0 1-1.86-1.76c-.426-.76-.64-1.66-.64-2.7 0-1.013.207-1.9.62-2.66.427-.76 1.007-1.353 1.74-1.78.747-.44 1.594-.66 2.54-.66.694 0 1.314.113 1.86.34.56.227 1.034.553 1.42.98.4.427.7.947.9 1.56.214.6.32 1.28.32 2.04 0 .24-.086.427-.26.56-.16.12-.393.18-.7.18h-6.42v-1.44h5.62l-.32.3c0-.613-.093-1.127-.28-1.54-.173-.413-.433-.727-.78-.94-.333-.227-.753-.34-1.26-.34-.56 0-1.04.133-1.44.4-.386.253-.686.62-.9 1.1-.2.467-.3 1.027-.3 1.68v.14c0 1.093.254 1.913.76 2.46.52.533 1.28.8 2.28.8a6.34 6.34 0 0 0 1.16-.12c.44-.093.854-.247 1.24-.46.28-.16.527-.227.74-.2.214.013.38.087.5.22.134.133.214.3.24.5.027.187-.013.38-.12.58-.093.2-.26.373-.5.52-.466.293-1.006.513-1.62.66-.6.133-1.16.2-1.68.2zm7.06-.04c-.4 0-.706-.107-.92-.32-.213-.227-.32-.547-.32-.96v-7.56c0-.413.107-.727.32-.94s.514-.32.9-.32.687.107.9.32.32.527.32.94v1.36l-.22-.5c.294-.707.747-1.24 1.36-1.6.627-.373 1.334-.56 2.12-.56s1.434.147 1.94.44.887.74 1.14 1.34c.254.587.38 1.333.38 2.24v4.84c0 .413-.106.733-.32.96-.213.213-.52.32-.92.32s-.713-.107-.94-.32c-.213-.227-.32-.547-.32-.96v-4.72c0-.76-.146-1.313-.44-1.66-.28-.347-.72-.52-1.32-.52-.733 0-1.32.233-1.76.7-.426.453-.64 1.06-.64 1.82v4.38c0 .853-.42 1.28-1.26 1.28zm14.02.04c-.854 0-1.607-.207-2.26-.62-.64-.413-1.14-1-1.5-1.76-.36-.773-.54-1.68-.54-2.72 0-1.053.18-1.953.54-2.7.36-.76.86-1.347 1.5-1.76.653-.413 1.406-.62 2.26-.62.813 0 1.52.2 2.12.6.613.4 1.026.927 1.24 1.58h-.22V43c0-.413.106-.727.32-.94s.52-.32.92-.32.706.107.92.32c.226.213.34.527.34.94v11.88c0 .413-.107.733-.32.96-.214.213-.52.32-.92.32s-.707-.107-.92-.32c-.214-.227-.32-.547-.32-.96v-1.56l.22.6a2.93 2.93 0 0 1-1.22 1.66c-.614.413-1.334.62-2.16.62zm.7-1.9c.493 0 .926-.12 1.3-.36s.66-.593.86-1.06c.213-.48.32-1.073.32-1.78 0-1.067-.227-1.86-.68-2.38-.454-.533-1.054-.8-1.8-.8-.494 0-.927.12-1.3.36-.374.227-.667.58-.88 1.06-.2.467-.3 1.053-.3 1.76 0 1.053.226 1.853.68 2.4.453.533 1.053.8 1.8.8z" fill="#f5f5f5"/></g><defs><filter id="A" x="67.684" y="0" width="128.599" height="86" filterUnits="userSpaceOnUse" color-interpolation-filters="sRGB"><feFlood flood-opacity="0"/><feBlend in="SourceGraphic" result="B"/><feColorMatrix in="SourceAlpha" values="0 0 0 0 0 0 0 0 0 0 0 0 0 0 0 0 0 0 127 0" result="C"/><feOffset dy="4"/><feGaussianBlur stdDeviation="2"/><feComposite in2="C" operator="arithmetic" k2="-1" k3="1"/><feColorMatrix values="0 0 0 0 0 0 0 0 0 0 0 0 0 0 0 0 0 0 0.25 0"/><feBlend in2="B"/></filter><filter id="B" x="15.556" y="33.58" width="231.295" height="34.62" filterUnits="userSpaceOnUse" color-interpolation-filters="sRGB"><feFlood flood-opacity="0" result="A"/><feColorMatrix in="SourceAlpha" values="0 0 0 0 0 0 0 0 0 0 0 0 0 0 0 0 0 0 127 0" result="B"/><feOffset dy="2"/><feGaussianBlur stdDeviation="5"/><feComposite in2="B" operator="out"/><feColorMatrix values="0 0 0 0 0 0 0 0 0 0 0 0 0 0 0 0 0 0 0.6 0"/><feBlend in2="A"/><feBlend in="SourceGraphic"/></filter></defs></svg>